<?xml version="1.0" standalone="no"?><!DOCTYPE svg PUBLIC "-//W3C//DTD SVG 1.1//EN" "http://www.w3.org/Graphics/SVG/1.1/DTD/svg11.dtd"><svg class="icon" width="200px" height="200.00px" viewBox="0 0 1024 1024" version="1.1" xmlns="http://www.w3.org/2000/svg"><path d="M715.2 808H291.2c-48-4.8-86.4-46.4-86.4-94.4V364.8c0-57.6 43.2-102.4 96-102.4h414.4c52.8 0 96 44.8 96 100.8v347.2c1.6 52.8-41.6 97.6-96 97.6zM300.8 304c-32 0-57.6 25.6-57.6 62.4v347.2c0 28.8 25.6 54.4 57.6 54.4h414.4c32 0 57.6-25.6 57.6-57.6V363.2c0-33.6-25.6-59.2-57.6-59.2H300.8z m313.6 57.6c-14.4 0-22.4-11.2-22.4-27.2v-91.2c0-14.4 8-27.2 22.4-27.2 14.4 0 22.4 11.2 22.4 27.2v91.2c0 14.4-8 27.2-22.4 27.2z m-216 0c-14.4 0-22.4-11.2-22.4-27.2v-91.2c0-14.4 8-27.2 22.4-27.2 14.4 0 22.4 11.2 22.4 27.2v91.2c0 14.4-8 27.2-22.4 27.2z m123.2 320H496c-14.4 0-25.6-9.6-25.6-24s11.2-24 25.6-24h25.6c14.4 0 25.6 9.6 25.6 24 1.6 14.4-11.2 24-25.6 24z m265.6-230.4H244.8c-14.4 0-25.6-8-25.6-22.4 0-14.4 11.2-22.4 25.6-22.4h540.8c14.4 0 25.6 8 25.6 22.4 1.6 14.4-9.6 22.4-24 22.4z m-400 147.2h-25.6c-14.4 0-25.6-9.6-25.6-24s11.2-22.4 25.6-22.4h25.6c14.4 0 25.6 8 25.6 22.4 1.6 14.4-11.2 24-25.6 24z m134.4 0H496c-14.4 0-25.6-9.6-25.6-24s11.2-22.4 25.6-22.4h25.6c14.4 0 25.6 8 25.6 22.4 1.6 14.4-11.2 24-25.6 24z m137.6 0h-25.6c-14.4 0-25.6-9.6-25.6-24s11.2-22.4 25.6-22.4h25.6c14.4 0 25.6 8 25.6 22.4 0 14.4-11.2 24-25.6 24z m-272 83.2h-25.6c-14.4 0-25.6-9.6-25.6-24s11.2-24 25.6-24h25.6c14.4 0 25.6 9.6 25.6 24 1.6 14.4-11.2 24-25.6 24z m272 0h-25.6c-14.4 0-25.6-9.6-25.6-24s11.2-24 25.6-24h25.6c14.4 0 25.6 9.6 25.6 24s-11.2 24-25.6 24z m0 0" fill="#fad549" /></svg>