<?xml version="1.0" standalone="no"?><!DOCTYPE svg PUBLIC "-//W3C//DTD SVG 1.1//EN" "http://www.w3.org/Graphics/SVG/1.1/DTD/svg11.dtd"><svg class="icon" width="200px" height="200.00px" viewBox="0 0 1024 1024" version="1.1" xmlns="http://www.w3.org/2000/svg"><path d="M794.464 327.136a23.264 23.264 0 0 1 0 33.92 25.6 25.6 0 0 1-35.296 0l-105.824-101.664a23.232 23.232 0 0 1-6.656-22.56 23.424 23.424 0 0 1 6.656-22.656l105.824-101.664a25.6 25.6 0 0 1 35.296 0 23.36 23.36 0 0 1 0 33.92l-63.968 61.44h204.096c13.792 0 24.928 10.72 24.928 23.968s-11.136 23.936-24.928 23.936h-214.4l74.272 71.36zM616.96 115.168c8.096 4.544 12.8 12.896 12.48 21.856a24.096 24.096 0 0 1-14.528 20.672 25.952 25.952 0 0 1-25.76-2.88 394.72 394.72 0 0 0-92.64-10.816C285.44 144 114.176 308.544 114.176 511.424c0 202.88 171.2 367.424 382.336 367.424 211.136 0 382.368-164.544 382.368-367.424 0-10.688-0.512-21.376-1.472-31.968h2.784a23.392 23.392 0 0 1 8.704-27.2 25.664 25.664 0 0 1 29.632 0 23.392 23.392 0 0 1 8.704 27.2h0.128c0.832 10.56 1.216 21.152 1.216 31.968 0 229.376-193.472 415.424-432.32 415.424C257.6 926.848 64 740.928 64 511.424S257.472 96 496.288 96c42.688 0 83.904 5.92 122.976 17.088l-2.304 2.08z m30.24 483.392c0 11.392-8.96 22.912-20.8 22.912H522.24v48.576c0 14.272-8.96 22.88-23.808 22.88a23.008 23.008 0 0 1-23.84-22.88V621.44h-104a23.008 23.008 0 0 1-23.808-22.912c0-14.272 11.84-22.88 23.84-22.88h104.096v-45.664h-104.096a23.008 23.008 0 0 1-23.84-22.912c0-14.272 11.84-22.88 23.84-22.88h104.096v-17.184l-118.848-91.456c-8.96-8.608-11.84-22.88-3.04-31.36a16.512 16.512 0 0 1 14.88-8.64c5.92 0 11.84 2.912 17.92 5.728l110.016 88.544 107.008-85.76c8.96-8.608 23.808-5.696 32.768 2.784 8.96 8.608 5.92 22.88-3.008 31.488l-113.088 88.64v17.216h104c14.88 0 23.84 11.392 23.84 22.88 0 14.304-11.84 22.912-23.84 22.912h-104v45.664h104c14.88 0 23.84 11.392 23.84 22.88z" fill="#333333" /></svg>