<?xml version="1.0" standalone="no"?><!DOCTYPE svg PUBLIC "-//W3C//DTD SVG 1.1//EN" "http://www.w3.org/Graphics/SVG/1.1/DTD/svg11.dtd"><svg class="icon" width="200px" height="200.00px" viewBox="0 0 1024 1024" version="1.1" xmlns="http://www.w3.org/2000/svg"><path d="M606.401339 1024c-29.478329 0-57.178-11.492789-78.006993-32.320782L32.944662 496.236533c-22.795615-22.76462-34.443374-54.270559-31.976848-86.404378l21.953776-285.349103c4.183195-54.585499 46.870983-97.272286 101.456482-101.456482L409.732175 1.073793c32.631722-2.435531 63.641756 9.14924 86.437371 31.975849l495.479678 495.444685c43.001727 42.997728 42.969733 112.947271 0 155.915004L684.344344 991.679218c-20.828993 20.827993-48.528664 32.320782-77.943005 32.320782zM418.225541 44.416455c-1.71767 0-3.404345 0.094982-5.122015 0.217958L127.749423 66.555196c-32.974656 2.531513-58.7387 28.323551-61.267213 61.299207L44.498439 413.204507c-1.465718 19.359276 5.558931 38.409611 19.329282 52.149967l495.479678 495.473679c25.138164 25.138164 68.982729 25.138164 94.151887 0L960.765165 653.525273c25.948008-25.949008 25.948008-68.19988 0-94.178882L465.284487 63.901706c-12.584579-12.553585-29.290365-19.485251-47.058946-19.485251z"  /><path d="M271.456776 358.777977c-23.3885 0-45.342277-9.056258-61.766117-25.481098-16.455834-16.456834-25.512092-38.378617-25.512092-61.765117 0-23.3905 9.056258-45.311283 25.512092-61.769117 16.42384-16.42484 38.377617-25.479098 61.766117-25.479098 23.357506 0 45.312283 9.055258 61.738123 25.479098 16.454834 16.457834 25.511092 38.378617 25.511092 61.769117 0 23.387501-9.056258 45.308283-25.511092 61.765117-16.42584 16.42484-38.379616 25.481098-61.738123 25.481098z m0-130.840828c-11.739741 0-22.701633 4.496135-30.882058 12.708555-8.21242 8.21242-12.709555 19.174311-12.709555 30.885058 0 11.738742 4.497135 22.701633 12.709555 30.882059 16.362852 16.393846 45.308283 16.393846 61.734123 0 8.21242-8.180426 12.709555-19.142317 12.709555-30.882059 0-11.710747-4.497135-22.671638-12.709555-30.885058-8.21242-8.182426-19.171312-12.708555-30.852065-12.708555z"  /></svg>