<?xml version="1.0" standalone="no"?><!DOCTYPE svg PUBLIC "-//W3C//DTD SVG 1.1//EN" "http://www.w3.org/Graphics/SVG/1.1/DTD/svg11.dtd"><svg class="icon" width="200px" height="200.00px" viewBox="0 0 1024 1024" version="1.1" xmlns="http://www.w3.org/2000/svg"><path d="M655.135 355.485c-28.535-28.535-74.799-28.535-103.334 0-28.534 28.535-28.534 74.799 0 103.334 28.535 28.535 74.8 28.535 103.334 0 24.799-24.799 28.046-62.99 9.74-91.296a73.444 73.444 0 0 0-9.74-12.038z m-31.697 71.639c-11.03 11.03-28.912 11.03-39.942 0-11.029-11.03-11.029-28.913 0-39.942 11.03-11.029 28.913-11.029 39.942 0 11.03 11.03 11.03 28.912 0 39.942z"  /><path d="M571.888 251.26c-36.224-0.653-84.626 19.837-109.66 44.872L262.781 495.576c-25.388 25.388-25.137 65.52-0.23 90.427l162.065 162.065c24.456 24.456 65.393 24.804 90.427-0.23L714.49 548.393c25.388-25.388 45.139-73.64 44.906-108.563 0 0 5.11-123.903-29.796-158.81-34.908-34.906-157.712-29.76-157.712-29.76z m142.72 186.723c0.117 25.223-15.01 61.908-31.815 78.714L483.348 716.142c-7.36 7.36-19.915 7.349-27.035 0.23L294.249 554.308c-7.528-7.528-7.53-19.277 0.229-27.036l199.445-199.445c16.929-16.928 53.788-32.17 77.157-31.749 5.856-0.164 12.015-0.295 20.308-0.251 13.921 0.072 28.34 0.648 42.348 1.877 14.46 1.27 27.577 3.166 38.683 5.698 14.194 3.236 23.402 7.233 25.484 9.315 2.092 2.092 6.155 11.559 9.416 26.126 2.488 11.11 4.357 24.182 5.612 38.572 1.234 14.137 1.816 28.695 1.892 42.755 0.046 8.377-0.083 14.602-0.216 17.813z"  /><path d="M514.202 65.625c-247.059 0-448.25 200.688-448.25 448.25 0 247.06 200.688 448.252 448.25 448.252 247.059 0 448.251-200.689 448.251-448.251 0-247.06-200.689-448.251-448.25-448.251z m0 864.484c-229.7 0-416.233-186.68-416.233-416.233 0-229.7 186.679-416.233 416.233-416.233 229.7 0 416.233 186.679 416.233 416.233 0 229.7-186.678 416.233-416.233 416.233z"  /></svg>