<?xml version="1.0" standalone="no"?><!DOCTYPE svg PUBLIC "-//W3C//DTD SVG 1.1//EN" "http://www.w3.org/Graphics/SVG/1.1/DTD/svg11.dtd"><svg class="icon" width="200px" height="200.00px" viewBox="0 0 1024 1024" version="1.1" xmlns="http://www.w3.org/2000/svg"><path d="M233.946216 398.157185c-7.488555 0-13.548574-6.060019-13.548574-13.548574l0-150.33903c0-7.488555 6.060019-13.548574 13.548574-13.548574 7.488555 0 13.548574 6.060019 13.548574 13.548574l0 150.33903C247.494791 392.097166 241.434771 398.157185 233.946216 398.157185z"  /><path d="M233.946216 863.84644c-7.488555 0-13.548574-6.060019-13.548574-13.548574l0-141.852752c0-7.488555 6.060019-13.548574 13.548574-13.548574 7.488555 0 13.548574 6.060019 13.548574 13.548574l0 141.852752C247.494791 857.786421 241.434771 863.84644 233.946216 863.84644z"  /><path d="M233.946216 629.824499c-7.488555 0-13.548574-6.060019-13.548574-13.548574l0-151.11572c0-7.488555 6.060019-13.548574 13.548574-13.548574 7.488555 0 13.548574 6.060019 13.548574 13.548574l0 151.11572C247.494791 623.76448 241.434771 629.824499 233.946216 629.824499z"  /><path d="M698.348152 370.618992l-88.00945 141.376914 69.679989 0 0 31.206746-81.829703 0 0 43.391253 81.829703 0 0 31.381731-81.829703 0 0 62.396095L553.500183 680.371732l0-62.396095-84.3542 0L469.145983 586.592882l84.3542 0 0-43.391253-84.3542 0 0-31.206746 71.056336 0-86.87051-141.376914 51.114145 0 60.739363 110.187565c3.357468 6.135744 7.179516 13.93743 11.456936 23.387663l0.919952 0c3.050476-7.590885 7.030114-15.72617 11.921517-24.38641l60.966537-109.187795L698.348152 370.618992z"  /><path d="M906.044518 863.84644 559.674812 863.84644l0-13.548574c0-26.145473-21.275559-47.421033-47.421033-47.421033-26.145473 0-47.421033 21.276582-47.421033 47.421033l0 13.548574L118.463042 863.84644c-29.54592 0-53.574173-24.041556-53.574173-53.586452L64.888869 260.096806c0-29.54592 24.028253-53.586452 53.574173-53.586452l346.369705 0 0 13.548574c0 26.145473 21.275559 47.421033 47.421033 47.421033 26.145473 0 47.421033-21.275559 47.421033-47.421033l0-13.548574 346.369705 0c29.54592 0 53.586452 24.041556 53.586452 53.586452l0 550.162158C959.631994 839.804884 935.590438 863.84644 906.044518 863.84644zM585.541947 836.749292l320.502571 0c14.607696 0 26.489304-11.881608 26.489304-26.489304L932.533822 260.096806c0-14.607696-11.881608-26.489304-26.489304-26.489304L585.541947 233.607502c-6.390547 34.639938-36.82265 60.969607-73.288167 60.969607-36.465516 0-66.897619-26.330692-73.288167-60.969607L118.463042 233.607502c-14.594393 0-26.476001 11.881608-26.476001 26.489304l0 550.162158c0 14.607696 11.881608 26.489304 26.476001 26.489304l320.502571 0c6.390547-34.639938 36.82265-60.969607 73.288167-60.969607C548.719296 775.778662 579.151399 802.109354 585.541947 836.749292z"  /></svg>