<?xml version="1.0" standalone="no"?><!DOCTYPE svg PUBLIC "-//W3C//DTD SVG 1.1//EN" "http://www.w3.org/Graphics/SVG/1.1/DTD/svg11.dtd"><svg class="icon" width="200px" height="200.00px" viewBox="0 0 1024 1024" version="1.1" xmlns="http://www.w3.org/2000/svg"><path d="M149.69856 766.16192a36.43904 36.43904 0 0 0 25.93792-10.73152l263.68512-263.69024 117.17632 117.18144 5.9392 2.9696v2.36544a36.7616 36.7616 0 0 0 21.72928 7.12704 36.43904 36.43904 0 0 0 25.91744-10.77248L832 388.69504l7.9104 21.11488a36.864 36.864 0 0 0 34.37568 23.79776c20.22912 0 36.6848-16.4352 36.6848-36.6336V294.48192a36.3264 36.3264 0 0 0-10.74688-25.89696 36.35712 36.35712 0 0 0-25.89696-10.752H771.84c-20.1984 0-36.63872 16.4608-36.63872 36.6848a36.89984 36.89984 0 0 0 23.81312 34.38592l21.0944 7.91552-195.96288 195.968-117.18656-117.17632-5.92896-2.9696v-2.37056a36.7616 36.7616 0 0 0-21.73952-7.12192 36.44416 36.44416 0 0 0-25.90208 10.76736L123.76064 703.5392a36.39296 36.39296 0 0 0-10.73152 25.92768 36.35712 36.35712 0 0 0 10.73152 25.95328 36.4032 36.4032 0 0 0 25.93792 10.74176z" fill="#85b2ec" /><path d="M984.32 848.96768h-906.24V136.63232a38.4 38.4 0 0 0-76.8 0v789.14048h983.04c21.21216 0 38.4-17.18272 38.4-38.4a38.4 38.4 0 0 0-38.4-38.40512z" fill="#85b2ec" /></svg>